<?xml version="1.0" encoding="utf-8"?>
<!-- Generator: Adobe Illustrator 24.2.1, SVG Export Plug-In . SVG Version: 6.00 Build 0)  -->
<svg version="1.1" id="Capa_1" xmlns="http://www.w3.org/2000/svg" xmlns:xlink="http://www.w3.org/1999/xlink" x="0px" y="0px"
	 viewBox="0 0 401 108" style="enable-background:new 0 0 401 108;" xml:space="preserve">
<style type="text/css">
	.st0{fill:#074073;}
	.st1{fill:url(#SVGID_1_);}
	.st2{fill:#FFFFFF;stroke:#FFFFFF;stroke-miterlimit:10;}
	.st3{fill:#FFFFFF;}
</style>
<path class="st0" d="M97,27C89.8,16.1,78.8,8.7,65.9,6C53.1,3.4,40,5.8,29,12.9C18.6,19.6,11.3,29.8,8.3,41.6
	c-2.7,17,8.6,33.2,25.8,36.8c9.9,2,19.6-1.9,25.4-9.3c0,0.1,0,0.2-0.1,0.3c7.1-7.8,8.9-18.3,3.8-26c-3-4.6-8-7.3-13.6-8.1
	c-1.3-0.3-2.7-0.4-4.1-0.2c-1.1,0-2.1,0.1-3.2,0.3c-0.1,0-0.1,0-0.2,0l0,0c-1.7,0.4-3.3,1-4.9,2c-6.6,4.3-8.5,12.9-4.3,19.3
	c3.2,4.8,8.9,7,14.4,5.9c-3.7-0.8-6.6-4.1-6.6-8.1c0-4.5,3.7-8.2,8.2-8.2s8.2,3.7,8.2,8.2c0,0.5,0,0.9-0.1,1.4
	c0.1-0.1,0.2-0.1,0.2-0.1c-1.8,8.6-10.3,14.1-19,12.3C27.9,66,21.3,56,23.4,45.8c2.6-12.2,14.7-20,27-17.5
	c15.1,3,24.7,17.4,21.6,32.1C68.2,78.3,50.5,89.8,32.4,86c-8.2-1.7-15.2-5.7-20.7-11.2c0.9,1.8,1.9,3.5,3,5.2
	c7.2,11,18.3,18.4,31.1,21.1c26.5,5.5,52.6-11.4,58.1-37.6C106.6,50.8,104.2,37.8,97,27z"/>
<linearGradient id="SVGID_1_" gradientUnits="userSpaceOnUse" x1="71.3529" y1="96.7886" x2="36.3656" y2="16.974" gradientTransform="matrix(1 0 0 -1 0 108)">
	<stop  offset="0.2224" style="stop-color:#3FCCFF"/>
	<stop  offset="0.8652" style="stop-color:#0075BE"/>
	<stop  offset="0.9944" style="stop-color:#005B97"/>
</linearGradient>
<path class="st1" d="M92.8,26.4C85.9,16,75.4,8.9,63.1,6.4S38.2,6.2,27.7,13c-10,6.4-16.9,16.1-19.8,27.5
	c-2.6,16.2,8.2,31.8,24.7,35.2c9.4,1.9,18.7-1.8,24.3-8.9c0,0.1,0,0.2-0.1,0.3c6.8-7.5,8.5-17.5,3.7-24.9c-2.9-4.4-7.7-7-13-7.8
	c-1.3-0.3-2.6-0.3-3.9-0.2c-1,0-2.1,0.1-3,0.2c-0.1,0-0.1,0-0.2,0l0,0c-1.6,0.3-3.2,1-4.7,1.9c-6.3,4.1-8.1,12.3-4.1,18.4
	c3,4.7,8.5,6.7,13.7,5.6c-3.6-0.8-6.3-3.9-6.3-7.7c0-4.3,3.6-7.9,7.9-7.9s7.9,3.6,7.9,7.9c0,0.4,0,0.9-0.1,1.3
	c0.1-0.1,0.2-0.1,0.2-0.1c-1.7,8.2-9.8,13.4-18.2,11.8C27,63.6,20.7,54.1,22.7,44.3c2.5-11.7,14.1-19.1,25.8-16.7
	C62.8,30.6,72,44.4,69,58.5c-3.6,17.1-20.5,28-37.9,24.4c-7.8-1.6-14.6-5.4-19.8-10.7c0.9,1.7,1.8,3.4,2.9,5
	c6.8,10.4,17.4,17.5,29.7,20c25.3,5.2,50.3-10.9,55.6-35.9C102,49.2,99.6,36.8,92.8,26.4z"/>
<g>
	<g id="_x30_3UNLIMITED_1_">
		<path class="st2" d="M115,56.1V28.3h5.8c2.8,0,5,0.3,6.6,0.8c1.7,0.5,3.3,1.5,4.7,2.7c2.9,2.6,4.3,6,4.3,10.3s-1.5,7.7-4.5,10.3
			c-1.5,1.3-3.1,2.2-4.7,2.7c-1.5,0.5-3.7,0.8-6.5,0.8H115V56.1z M119.2,52.1h1.9c1.9,0,3.4-0.2,4.7-0.6c1.2-0.4,2.4-1.1,3.4-2
			c2.1-1.9,3.1-4.3,3.1-7.3s-1-5.5-3.1-7.4c-1.8-1.7-4.5-2.5-8.1-2.5h-1.9V52.1z"/>
		<path class="st2" d="M147.4,28.3V56h-4.2V28.3H147.4z"/>
		<path class="st2" d="M154.5,56.1l5.8-29.8l9.5,21.6l9.9-21.6l5.2,29.8h-4.3l-2.7-16.7l-8.2,18l-8-18l-3,16.8L154.5,56.1
			L154.5,56.1z"/>
		<path class="st2" d="M207.7,32.3h-11.1v6.6h10.8v4h-10.8v9.3h11.1v3.9h-15.3V28.3h15.3V32.3z"/>
		<path class="st2" d="M243.1,32.5l-3.4,2c-0.6-1.1-1.2-1.8-1.8-2.2s-1.4-0.6-2.3-0.6c-1.2,0-2.1,0.3-2.9,1
			c-0.8,0.6-1.1,1.5-1.1,2.4c0,1.4,1,2.4,3,3.3l2.8,1.1c2.3,0.9,3.9,2,4.9,3.3s1.6,2.9,1.6,4.8c0,2.6-0.8,4.7-2.6,6.3
			c-1.7,1.7-3.8,2.5-6.4,2.5c-2.4,0-4.4-0.7-6-2.1c-1.5-1.4-2.5-3.4-2.9-6l4.2-0.9c0.2,1.6,0.5,2.8,1,3.4c0.9,1.2,2.1,1.8,3.8,1.8
			c1.3,0,2.4-0.4,3.3-1.3s1.3-2,1.3-3.3c0-0.5-0.1-1-0.2-1.5c-0.2-0.4-0.4-0.9-0.7-1.2c-0.3-0.4-0.7-0.7-1.2-1.1
			c-0.5-0.3-1.1-0.6-1.8-0.9l-2.7-1.1c-3.8-1.6-5.7-4-5.7-7c0-2.1,0.8-3.8,2.4-5.2c1.6-1.4,3.6-2.1,5.9-2.1
			C238.8,27.8,241.3,29.3,243.1,32.5z"/>
		<path class="st2" d="M254.6,28.3V45c0,2.4,0.4,4.1,1.2,5.2c1.2,1.6,2.8,2.4,4.9,2.4s3.8-0.8,4.9-2.4c0.8-1.1,1.2-2.8,1.2-5.2V28.3
			h4.2v17.9c0,2.9-0.9,5.3-2.7,7.2c-2,2.1-4.6,3.2-7.5,3.2s-5.5-1.1-7.5-3.2c-1.8-1.9-2.7-4.3-2.7-7.2V28.3H254.6z"/>
		<path class="st2" d="M299.5,29.8v5c-2.4-2-4.9-3-7.5-3c-2.9,0-5.3,1-7.2,3.1c-2,2-2.9,4.5-2.9,7.5c0,2.9,1,5.4,2.9,7.4
			c2,2,4.4,3,7.2,3c1.5,0,2.7-0.2,3.8-0.7c0.6-0.2,1.2-0.6,1.8-1c0.6-0.4,1.3-0.9,2-1.5v5c-2.4,1.4-4.9,2-7.5,2
			c-4,0-7.3-1.4-10.2-4.2c-2.8-2.8-4.2-6.2-4.2-10.1c0-3.5,1.2-6.7,3.5-9.5c2.9-3.4,6.6-5.1,11.2-5.1
			C294.8,27.8,297.2,28.5,299.5,29.8z"/>
		<path class="st2" d="M326.8,29.8v5c-2.4-2-4.9-3-7.5-3c-2.9,0-5.3,1-7.2,3.1c-2,2-2.9,4.5-2.9,7.5c0,2.9,1,5.4,2.9,7.4
			c2,2,4.4,3,7.2,3c1.5,0,2.7-0.2,3.8-0.7c0.6-0.2,1.2-0.6,1.8-1c0.6-0.4,1.3-0.9,2-1.5v5c-2.4,1.4-4.9,2-7.5,2
			c-4,0-7.3-1.4-10.2-4.2c-2.8-2.8-4.2-6.2-4.2-10.1c0-3.5,1.2-6.7,3.5-9.5c2.9-3.4,6.6-5.1,11.2-5.1
			C322.1,27.8,324.5,28.5,326.8,29.8z"/>
		<path class="st2" d="M348.9,32.3h-11.1v6.6h10.8v4h-10.8v9.3h11.1v3.9h-15.3V28.3h15.3V32.3z"/>
		<path class="st2" d="M371.5,32.5l-3.4,2c-0.6-1.1-1.2-1.8-1.8-2.2c-0.6-0.4-1.4-0.6-2.3-0.6c-1.2,0-2.1,0.3-2.9,1
			c-0.8,0.6-1.1,1.5-1.1,2.4c0,1.4,1,2.4,3,3.3l2.8,1.1c2.3,0.9,3.9,2,4.9,3.3s1.6,2.9,1.6,4.8c0,2.6-0.8,4.7-2.6,6.3
			c-1.7,1.7-3.8,2.5-6.4,2.5c-2.4,0-4.4-0.7-6-2.1c-1.5-1.4-2.5-3.4-2.9-6l4.2-0.9c0.2,1.6,0.5,2.8,1,3.4c0.9,1.2,2.1,1.8,3.8,1.8
			c1.3,0,2.4-0.4,3.3-1.3s1.3-2,1.3-3.3c0-0.5-0.1-1-0.2-1.5c-0.2-0.4-0.4-0.9-0.7-1.2c-0.3-0.4-0.7-0.7-1.2-1.1
			c-0.5-0.3-1.1-0.6-1.8-0.9l-2.7-1.1c-3.8-1.6-5.7-4-5.7-7c0-2.1,0.8-3.8,2.4-5.2s3.6-2.1,5.9-2.1
			C367.2,27.8,369.7,29.3,371.5,32.5z"/>
		<path class="st2" d="M394.4,32.5l-3.4,2c-0.6-1.1-1.2-1.8-1.8-2.2c-0.6-0.4-1.4-0.6-2.3-0.6c-1.2,0-2.1,0.3-2.9,1
			c-0.8,0.6-1.1,1.5-1.1,2.4c0,1.4,1,2.4,3,3.3l2.8,1.1c2.3,0.9,3.9,2,4.9,3.3s1.6,2.9,1.6,4.8c0,2.6-0.8,4.7-2.6,6.3
			c-1.7,1.7-3.8,2.5-6.4,2.5c-2.4,0-4.4-0.7-6-2.1c-1.5-1.4-2.5-3.4-2.9-6l4.2-0.9c0.2,1.6,0.5,2.8,1,3.4c0.9,1.2,2.1,1.8,3.8,1.8
			c1.3,0,2.4-0.4,3.3-1.3s1.3-2,1.3-3.3c0-0.5-0.1-1-0.2-1.5c-0.2-0.4-0.4-0.9-0.7-1.2c-0.3-0.4-0.7-0.7-1.2-1.1
			c-0.5-0.3-1.1-0.6-1.8-0.9l-2.7-1.1c-3.8-1.6-5.7-4-5.7-7c0-2.1,0.8-3.8,2.4-5.2s3.6-2.1,5.9-2.1
			C390.1,27.8,392.6,29.3,394.4,32.5z"/>
	</g>
	<g>
		<path class="st3" d="M117.8,67.3v9.6c0,1.4,0.2,2.4,0.7,3c0.7,0.9,1.6,1.4,2.8,1.4c1.2,0,2.1-0.5,2.8-1.4c0.4-0.6,0.7-1.6,0.7-3
			v-9.5h2.4v10.2c0,1.7-0.5,3-1.6,4.1c-1.2,1.2-2.6,1.8-4.3,1.8c-1.7,0-3.1-0.6-4.3-1.8c-1-1.1-1.6-2.5-1.6-4.1V67.3H117.8z"/>
		<path class="st3" d="M132.6,83.2v-17l11.6,12.1v-11h2.4v16.8L135,72v11.1L132.6,83.2L132.6,83.2z"/>
		<path class="st3" d="M154.5,67.3v13.6h4.7v2.2h-7.1V67.3H154.5z"/>
		<path class="st3" d="M165.5,67.3v15.9h-2.4V67.3H165.5z"/>
		<path class="st3" d="M170.4,83.2l3.3-17l5.4,12.3l5.6-12.3l3,17h-2.3l-1.5-9.6l-4.8,10.3l-4.6-10.3l-1.7,9.6
			C172.8,83.2,170.4,83.2,170.4,83.2z"/>
		<path class="st3" d="M195.2,67.3v15.9h-2.4V67.3H195.2z"/>
		<path class="st3" d="M205.1,69.6v13.6h-2.4V69.6h-3.6v-2.2h9.7v2.2H205.1z"/>
		<path class="st3" d="M221.3,69.6h-6.4v3.8h6.2v2.2h-6.2v5.3h6.4v2.2h-8.7V67.3h8.7V69.6z"/>
		<path class="st3" d="M226.1,83.2V67.3h3.3c1.6,0,2.9,0.2,3.8,0.5c1,0.3,1.9,0.8,2.7,1.6c1.6,1.5,2.5,3.5,2.5,5.9s-0.9,4.4-2.6,5.9
			c-0.9,0.8-1.8,1.3-2.7,1.6c-0.9,0.3-2.1,0.4-3.7,0.4C229.4,83.2,226.1,83.2,226.1,83.2z M228.5,80.9h1.1c1.1,0,2-0.1,2.7-0.3
			c0.7-0.2,1.4-0.6,1.9-1.1c1.2-1.1,1.8-2.5,1.8-4.2s-0.6-3.1-1.7-4.2c-1-1-2.6-1.4-4.6-1.4h-1.1L228.5,80.9L228.5,80.9z"/>
		<path class="st3" d="M253.6,67.3v13.6h4.7v2.2h-7.1V67.3H253.6z"/>
		<path class="st3" d="M272.5,79.3h-6.8l-1.8,3.8h-2.6l7.8-16.8l7.6,16.8h-2.6L272.5,79.3z M271.5,77.1l-2.4-5.4l-2.5,5.4H271.5z"/>
		<path class="st3" d="M280.4,83.2v-17L292,78.3v-11h2.4v16.8L282.8,72v11.1L280.4,83.2L280.4,83.2z"/>
		<path class="st3" d="M308.1,74.9h6.6v0.5c0,1.2-0.1,2.2-0.4,3.2c-0.3,0.8-0.7,1.6-1.4,2.4c-1.5,1.7-3.3,2.5-5.6,2.5
			c-2.2,0-4.1-0.8-5.7-2.4s-2.4-3.5-2.4-5.8s0.8-4.3,2.4-5.9s3.6-2.4,5.9-2.4c1.2,0,2.4,0.3,3.5,0.8c1,0.5,2,1.3,3,2.5l-1.7,1.6
			c-1.3-1.7-2.9-2.6-4.8-2.6c-1.7,0-3.1,0.6-4.2,1.7s-1.7,2.6-1.7,4.3c0,1.8,0.6,3.2,1.9,4.4c1.2,1.1,2.5,1.6,3.8,1.6
			c1.2,0,2.2-0.4,3.2-1.2c0.9-0.8,1.5-1.8,1.6-2.9h-4L308.1,74.9L308.1,74.9z"/>
		<path class="st3" d="M321.8,67.3v9.6c0,1.4,0.2,2.4,0.7,3c0.7,0.9,1.6,1.4,2.8,1.4c1.2,0,2.1-0.5,2.8-1.4c0.4-0.6,0.7-1.6,0.7-3
			v-9.5h2.4v10.2c0,1.7-0.5,3-1.6,4.1c-1.2,1.2-2.6,1.8-4.3,1.8c-1.7,0-3.1-0.6-4.3-1.8c-1-1.1-1.6-2.5-1.6-4.1V67.3H321.8z"/>
		<path class="st3" d="M345.2,79.3h-6.8l-1.8,3.8H334l7.8-16.8l7.6,16.8h-2.6L345.2,79.3z M344.3,77.1l-2.4-5.4l-2.5,5.4H344.3z"/>
		<path class="st3" d="M360.6,74.9h6.6v0.5c0,1.2-0.1,2.2-0.4,3.2c-0.3,0.8-0.7,1.6-1.4,2.4c-1.5,1.7-3.3,2.5-5.6,2.5
			c-2.2,0-4.1-0.8-5.7-2.4s-2.4-3.5-2.4-5.8s0.8-4.3,2.4-5.9s3.6-2.4,5.9-2.4c1.2,0,2.4,0.3,3.5,0.8c1,0.5,2,1.3,3,2.5l-1.7,1.6
			c-1.3-1.7-2.9-2.6-4.8-2.6c-1.7,0-3.1,0.6-4.2,1.7s-1.7,2.6-1.7,4.3c0,1.8,0.6,3.2,1.9,4.4c1.2,1.1,2.5,1.6,3.8,1.6
			c1.2,0,2.2-0.4,3.2-1.2c0.9-0.8,1.5-1.8,1.6-2.9h-4L360.6,74.9L360.6,74.9z"/>
		<path class="st3" d="M380.6,69.6h-6.4v3.8h6.2v2.2h-6.2v5.3h6.4v2.2h-8.7V67.3h8.7V69.6z"/>
		<path class="st3" d="M394.4,69.7l-1.9,1.1c-0.4-0.6-0.7-1-1-1.2s-0.8-0.3-1.3-0.3c-0.7,0-1.2,0.2-1.7,0.6
			c-0.4,0.4-0.7,0.8-0.7,1.4c0,0.8,0.6,1.4,1.7,1.9l1.6,0.6c1.3,0.5,2.2,1.2,2.8,1.9c0.6,0.7,0.9,1.7,0.9,2.8c0,1.5-0.5,2.7-1.5,3.6
			c-1,1-2.2,1.4-3.6,1.4s-2.5-0.4-3.4-1.2c-0.9-0.8-1.4-2-1.7-3.4l2.4-0.5c0.1,0.9,0.3,1.6,0.6,1.9c0.5,0.7,1.2,1,2.2,1
			c0.7,0,1.4-0.2,1.9-0.7s0.7-1.1,0.7-1.9c0-0.3,0-0.6-0.1-0.8c-0.1-0.3-0.2-0.5-0.4-0.7c-0.2-0.2-0.4-0.4-0.7-0.6
			c-0.3-0.2-0.6-0.4-1-0.5l-1.5-0.6c-2.2-0.9-3.3-2.3-3.3-4c0-1.2,0.5-2.2,1.4-3s2-1.2,3.4-1.2C391.9,67,393.4,67.9,394.4,69.7z"/>
	</g>
</g>
</svg>
