<?xml version="1.0" encoding="utf-8"?>
<!-- Generator: Adobe Illustrator 24.2.1, SVG Export Plug-In . SVG Version: 6.00 Build 0)  -->
<svg version="1.1" id="Capa_1" xmlns="http://www.w3.org/2000/svg" xmlns:xlink="http://www.w3.org/1999/xlink" x="0px" y="0px"
	 viewBox="0 0 401 98" style="enable-background:new 0 0 401 98;" xml:space="preserve">
<style type="text/css">
	.st0{fill:#074073;}
	.st1{fill:url(#SVGID_1_);}
	.st2{fill:#FFFFFF;stroke:#FFFFFF;stroke-miterlimit:10;}
	.st3{fill:#FFFFFF;}
</style>
<path class="st0" d="M93.9,24.6c-6.9-10.5-17.6-17.7-30-20.2C51.5,1.8,38.8,4.2,28.2,11c-10,6.5-17.1,16.3-20,27.7
	c-2.6,16.4,8.3,32.1,24.9,35.5c9.5,2,18.9-1.8,24.5-8.9c0,0.1,0,0.2-0.1,0.3c6.8-7.5,8.6-17.7,3.7-25.1c-2.9-4.4-7.7-7.1-13.1-7.9
	c-1.3-0.3-2.6-0.4-3.9-0.2c-1,0-2.1,0.1-3.1,0.3c-0.1,0-0.1,0-0.2,0c0,0,0,0,0,0c-1.6,0.3-3.2,1-4.7,1.9c-6.4,4.1-8.2,12.4-4.1,18.6
	c3.1,4.6,8.6,6.7,13.9,5.7c-3.6-0.7-6.3-3.9-6.3-7.8c0-4.4,3.6-7.9,7.9-7.9c4.4,0,7.9,3.6,7.9,7.9c0,0.5,0,0.9-0.1,1.3
	c0.1-0.1,0.2-0.1,0.2-0.1c-1.7,8.3-10,13.6-18.3,11.9C27.4,62.1,21,52.5,23.1,42.6c2.5-11.8,14.2-19.3,26.1-16.9
	c14.4,3,23.6,16.9,20.6,31.1C66.1,74.1,49,85.2,31.6,81.6c-7.9-1.6-14.7-5.5-20-10.8c0.9,1.7,1.8,3.4,2.9,5
	c6.9,10.5,17.6,17.7,30,20.2c25.6,5.3,50.8-11,56.1-36.3C103.2,47.6,100.8,35.1,93.9,24.6z"/>
<linearGradient id="SVGID_1_" gradientUnits="userSpaceOnUse" x1="68.3331" y1="9.2404" x2="33.0214" y2="89.7953">
	<stop  offset="0.2224" style="stop-color:#3FCCFF"/>
	<stop  offset="0.8652" style="stop-color:#0075BE"/>
	<stop  offset="0.9944" style="stop-color:#005B97"/>
</linearGradient>
<path class="st1" d="M90,24.6c-6.9-10.5-17.6-17.7-30-20.2C47.7,1.8,35,4.2,24.4,11c-10,6.5-17.1,16.3-20,27.7
	c-2.6,16.4,8.3,32.1,24.9,35.5c9.5,2,18.9-1.8,24.5-8.9c0,0.1,0,0.2-0.1,0.3c6.8-7.5,8.6-17.7,3.7-25.1c-2.9-4.4-7.7-7.1-13.1-7.9
	c-1.3-0.3-2.6-0.4-3.9-0.2c-1,0-2.1,0.1-3.1,0.3c-0.1,0-0.1,0-0.2,0c0,0,0,0,0,0c-1.6,0.3-3.2,1-4.7,1.9c-6.4,4.1-8.2,12.4-4.1,18.6
	c3.1,4.6,8.6,6.7,13.9,5.7c-3.6-0.7-6.3-3.9-6.3-7.8c0-4.4,3.6-7.9,7.9-7.9c4.4,0,7.9,3.6,7.9,7.9c0,0.5,0,0.9-0.1,1.3
	c0.1-0.1,0.2-0.1,0.2-0.1c-1.7,8.3-10,13.6-18.3,11.9c-9.9-2.1-16.3-11.7-14.2-21.5c2.5-11.8,14.2-19.3,26.1-16.9
	c14.4,3,23.6,16.9,20.6,31.1c-3.6,17.2-20.8,28.3-38.2,24.7C19.9,80,13,76.1,7.8,70.8c0.9,1.7,1.8,3.4,2.9,5
	c6.9,10.5,17.6,17.7,30,20.2c25.6,5.3,50.8-11,56.1-36.3C99.4,47.6,97,35.1,90,24.6z"/>
<g id="_x30_3UNLIMITED_1_">
	<path class="st2" d="M115,51.1V23.3h5.8c2.8,0,5,0.3,6.6,0.8c1.7,0.5,3.3,1.5,4.7,2.7c2.9,2.6,4.3,6,4.3,10.3s-1.5,7.7-4.5,10.3
		c-1.5,1.3-3.1,2.2-4.7,2.7c-1.5,0.5-3.7,0.8-6.5,0.8H115V51.1z M119.2,47.1h1.9c1.9,0,3.4-0.2,4.7-0.6c1.2-0.4,2.4-1.1,3.4-2
		c2.1-1.9,3.1-4.3,3.1-7.3s-1-5.5-3.1-7.4c-1.8-1.7-4.5-2.5-8.1-2.5h-1.9V47.1z"/>
	<path class="st2" d="M147.4,23.3V51h-4.2V23.3H147.4z"/>
	<path class="st2" d="M154.5,51.1l5.8-29.8l9.5,21.6l9.9-21.6l5.2,29.8h-4.3l-2.7-16.7l-8.2,18l-8-18l-3,16.8L154.5,51.1L154.5,51.1
		z"/>
	<path class="st2" d="M207.7,27.3h-11.1v6.6h10.8v4h-10.8v9.3h11.1v3.9h-15.3V23.3h15.3V27.3z"/>
	<path class="st2" d="M243.1,27.5l-3.4,2c-0.6-1.1-1.2-1.8-1.8-2.2s-1.4-0.6-2.3-0.6c-1.2,0-2.1,0.3-2.9,1c-0.8,0.6-1.1,1.5-1.1,2.4
		c0,1.4,1,2.4,3,3.3l2.8,1.1c2.3,0.9,3.9,2,4.9,3.3s1.6,2.9,1.6,4.8c0,2.6-0.8,4.7-2.6,6.3c-1.7,1.7-3.8,2.5-6.4,2.5
		c-2.4,0-4.4-0.7-6-2.1c-1.5-1.4-2.5-3.4-2.9-6l4.2-0.9c0.2,1.6,0.5,2.8,1,3.4c0.9,1.2,2.1,1.8,3.8,1.8c1.3,0,2.4-0.4,3.3-1.3
		s1.3-2,1.3-3.3c0-0.5-0.1-1-0.2-1.5c-0.2-0.4-0.4-0.9-0.7-1.2c-0.3-0.4-0.7-0.7-1.2-1.1c-0.5-0.3-1.1-0.6-1.8-0.9l-2.7-1.1
		c-3.8-1.6-5.7-4-5.7-7c0-2.1,0.8-3.8,2.4-5.2c1.6-1.4,3.6-2.1,5.9-2.1C238.8,22.8,241.3,24.3,243.1,27.5z"/>
	<path class="st2" d="M254.6,23.3V40c0,2.4,0.4,4.1,1.2,5.2c1.2,1.6,2.8,2.4,4.9,2.4c2.1,0,3.8-0.8,4.9-2.4c0.8-1.1,1.2-2.8,1.2-5.2
		V23.3h4.2v17.9c0,2.9-0.9,5.3-2.7,7.2c-2,2.1-4.6,3.2-7.5,3.2s-5.5-1.1-7.5-3.2c-1.8-1.9-2.7-4.3-2.7-7.2V23.3H254.6z"/>
	<path class="st2" d="M299.5,24.8v5c-2.4-2-4.9-3-7.5-3c-2.9,0-5.3,1-7.2,3.1c-2,2-2.9,4.5-2.9,7.5c0,2.9,1,5.4,2.9,7.4
		c2,2,4.4,3,7.2,3c1.5,0,2.7-0.2,3.8-0.7c0.6-0.2,1.2-0.6,1.8-1c0.6-0.4,1.3-0.9,2-1.5v5c-2.4,1.4-4.9,2-7.5,2
		c-4,0-7.3-1.4-10.2-4.2c-2.8-2.8-4.2-6.2-4.2-10.1c0-3.5,1.2-6.7,3.5-9.5c2.9-3.4,6.6-5.1,11.2-5.1
		C294.8,22.8,297.2,23.5,299.5,24.8z"/>
	<path class="st2" d="M326.8,24.8v5c-2.4-2-4.9-3-7.5-3c-2.9,0-5.3,1-7.2,3.1c-2,2-2.9,4.5-2.9,7.5c0,2.9,1,5.4,2.9,7.4
		c2,2,4.4,3,7.2,3c1.5,0,2.7-0.2,3.8-0.7c0.6-0.2,1.2-0.6,1.8-1c0.6-0.4,1.3-0.9,2-1.5v5c-2.4,1.4-4.9,2-7.5,2
		c-4,0-7.3-1.4-10.2-4.2c-2.8-2.8-4.2-6.2-4.2-10.1c0-3.5,1.2-6.7,3.5-9.5c2.9-3.4,6.6-5.1,11.2-5.1
		C322.1,22.8,324.5,23.5,326.8,24.8z"/>
	<path class="st2" d="M348.9,27.3h-11.1v6.6h10.8v4h-10.8v9.3h11.1v3.9h-15.3V23.3h15.3V27.3z"/>
	<path class="st2" d="M371.5,27.5l-3.4,2c-0.6-1.1-1.2-1.8-1.8-2.2c-0.6-0.4-1.4-0.6-2.3-0.6c-1.2,0-2.1,0.3-2.9,1
		c-0.8,0.6-1.1,1.5-1.1,2.4c0,1.4,1,2.4,3,3.3l2.8,1.1c2.3,0.9,3.9,2,4.9,3.3s1.6,2.9,1.6,4.8c0,2.6-0.8,4.7-2.6,6.3
		c-1.7,1.7-3.8,2.5-6.4,2.5c-2.4,0-4.4-0.7-6-2.1c-1.5-1.4-2.5-3.4-2.9-6l4.2-0.9c0.2,1.6,0.5,2.8,1,3.4c0.9,1.2,2.1,1.8,3.8,1.8
		c1.3,0,2.4-0.4,3.3-1.3s1.3-2,1.3-3.3c0-0.5-0.1-1-0.2-1.5c-0.2-0.4-0.4-0.9-0.7-1.2c-0.3-0.4-0.7-0.7-1.2-1.1
		c-0.5-0.3-1.1-0.6-1.8-0.9l-2.7-1.1c-3.8-1.6-5.7-4-5.7-7c0-2.1,0.8-3.8,2.4-5.2s3.6-2.1,5.9-2.1C367.2,22.8,369.7,24.3,371.5,27.5
		z"/>
	<path class="st2" d="M394.4,27.5l-3.4,2c-0.6-1.1-1.2-1.8-1.8-2.2c-0.6-0.4-1.4-0.6-2.3-0.6c-1.2,0-2.1,0.3-2.9,1
		c-0.8,0.6-1.1,1.5-1.1,2.4c0,1.4,1,2.4,3,3.3l2.8,1.1c2.3,0.9,3.9,2,4.9,3.3s1.6,2.9,1.6,4.8c0,2.6-0.8,4.7-2.6,6.3
		c-1.7,1.7-3.8,2.5-6.4,2.5c-2.4,0-4.4-0.7-6-2.1c-1.5-1.4-2.5-3.4-2.9-6l4.2-0.9c0.2,1.6,0.5,2.8,1,3.4c0.9,1.2,2.1,1.8,3.8,1.8
		c1.3,0,2.4-0.4,3.3-1.3s1.3-2,1.3-3.3c0-0.5-0.1-1-0.2-1.5c-0.2-0.4-0.4-0.9-0.7-1.2c-0.3-0.4-0.7-0.7-1.2-1.1
		c-0.5-0.3-1.1-0.6-1.8-0.9l-2.7-1.1c-3.8-1.6-5.7-4-5.7-7c0-2.1,0.8-3.8,2.4-5.2s3.6-2.1,5.9-2.1C390.1,22.8,392.6,24.3,394.4,27.5
		z"/>
</g>
<g>
	<path class="st3" d="M117.8,62.3v9.6c0,1.4,0.2,2.4,0.7,3c0.7,0.9,1.6,1.4,2.8,1.4c1.2,0,2.1-0.5,2.8-1.4c0.4-0.6,0.7-1.6,0.7-3
		v-9.5h2.4v10.2c0,1.7-0.5,3-1.6,4.1c-1.2,1.2-2.6,1.8-4.3,1.8c-1.7,0-3.1-0.6-4.3-1.8c-1-1.1-1.6-2.5-1.6-4.1V62.3H117.8z"/>
	<path class="st3" d="M132.6,78.2v-17l11.6,12.1v-11h2.4v16.8L135,67v11.1h-2.4V78.2z"/>
	<path class="st3" d="M154.5,62.3v13.6h4.7v2.2h-7.1V62.3H154.5z"/>
	<path class="st3" d="M165.5,62.3v15.9h-2.4V62.3H165.5z"/>
	<path class="st3" d="M170.4,78.2l3.3-17l5.4,12.3l5.6-12.3l3,17h-2.3l-1.5-9.6l-4.8,10.3l-4.6-10.3l-1.7,9.6
		C172.8,78.2,170.4,78.2,170.4,78.2z"/>
	<path class="st3" d="M195.2,62.3v15.9h-2.4V62.3H195.2z"/>
	<path class="st3" d="M205.1,64.6v13.6h-2.4V64.6h-3.6v-2.2h9.7v2.2H205.1z"/>
	<path class="st3" d="M221.3,64.6h-6.4v3.8h6.2v2.2h-6.2v5.3h6.4v2.2h-8.7V62.3h8.7V64.6z"/>
	<path class="st3" d="M226.1,78.2V62.3h3.3c1.6,0,2.9,0.2,3.8,0.5c1,0.3,1.9,0.8,2.7,1.6c1.6,1.5,2.5,3.5,2.5,5.9s-0.9,4.4-2.6,5.9
		c-0.9,0.8-1.8,1.3-2.7,1.6c-0.9,0.3-2.1,0.4-3.7,0.4H226.1z M228.5,75.9h1.1c1.1,0,2-0.1,2.7-0.3c0.7-0.2,1.4-0.6,1.9-1.1
		c1.2-1.1,1.8-2.5,1.8-4.2s-0.6-3.1-1.7-4.2c-1-1-2.6-1.4-4.6-1.4h-1.1L228.5,75.9L228.5,75.9z"/>
	<path class="st3" d="M253.6,62.3v13.6h4.7v2.2h-7.1V62.3H253.6z"/>
	<path class="st3" d="M272.5,74.3h-6.8l-1.8,3.8h-2.6l7.8-16.8l7.6,16.8h-2.6L272.5,74.3z M271.5,72.1l-2.4-5.4l-2.5,5.4H271.5z"/>
	<path class="st3" d="M280.4,78.2v-17L292,73.3v-11h2.4v16.8L282.8,67v11.1L280.4,78.2L280.4,78.2z"/>
	<path class="st3" d="M308.1,69.9h6.6v0.5c0,1.2-0.1,2.2-0.4,3.2c-0.3,0.8-0.7,1.6-1.4,2.4c-1.5,1.7-3.3,2.5-5.6,2.5
		c-2.2,0-4.1-0.8-5.7-2.4s-2.4-3.5-2.4-5.8s0.8-4.3,2.4-5.9c1.6-1.6,3.6-2.4,5.9-2.4c1.2,0,2.4,0.3,3.5,0.8c1,0.5,2,1.3,3,2.5
		l-1.7,1.6c-1.3-1.7-2.9-2.6-4.8-2.6c-1.7,0-3.1,0.6-4.2,1.7s-1.7,2.6-1.7,4.3c0,1.8,0.6,3.2,1.9,4.4c1.2,1.1,2.5,1.6,3.8,1.6
		c1.2,0,2.2-0.4,3.2-1.2c0.9-0.8,1.5-1.8,1.6-2.9h-4L308.1,69.9L308.1,69.9z"/>
	<path class="st3" d="M321.8,62.3v9.6c0,1.4,0.2,2.4,0.7,3c0.7,0.9,1.6,1.4,2.8,1.4c1.2,0,2.1-0.5,2.8-1.4c0.4-0.6,0.7-1.6,0.7-3
		v-9.5h2.4v10.2c0,1.7-0.5,3-1.6,4.1c-1.2,1.2-2.6,1.8-4.3,1.8c-1.7,0-3.1-0.6-4.3-1.8c-1-1.1-1.6-2.5-1.6-4.1V62.3H321.8z"/>
	<path class="st3" d="M345.2,74.3h-6.8l-1.8,3.8H334l7.8-16.8l7.6,16.8h-2.6L345.2,74.3z M344.3,72.1l-2.4-5.4l-2.5,5.4H344.3z"/>
	<path class="st3" d="M360.6,69.9h6.6v0.5c0,1.2-0.1,2.2-0.4,3.2c-0.3,0.8-0.7,1.6-1.4,2.4c-1.5,1.7-3.3,2.5-5.6,2.5
		c-2.2,0-4.1-0.8-5.7-2.4s-2.4-3.5-2.4-5.8s0.8-4.3,2.4-5.9c1.6-1.6,3.6-2.4,5.9-2.4c1.2,0,2.4,0.3,3.5,0.8c1,0.5,2,1.3,3,2.5
		l-1.7,1.6c-1.3-1.7-2.9-2.6-4.8-2.6c-1.7,0-3.1,0.6-4.2,1.7s-1.7,2.6-1.7,4.3c0,1.8,0.6,3.2,1.9,4.4c1.2,1.1,2.5,1.6,3.8,1.6
		c1.2,0,2.2-0.4,3.2-1.2c0.9-0.8,1.5-1.8,1.6-2.9h-4L360.6,69.9L360.6,69.9z"/>
	<path class="st3" d="M380.6,64.6h-6.4v3.8h6.2v2.2h-6.2v5.3h6.4v2.2h-8.7V62.3h8.7V64.6z"/>
	<path class="st3" d="M394.4,64.7l-1.9,1.1c-0.4-0.6-0.7-1-1-1.2c-0.3-0.2-0.8-0.3-1.3-0.3c-0.7,0-1.2,0.2-1.7,0.6
		c-0.4,0.4-0.7,0.8-0.7,1.4c0,0.8,0.6,1.4,1.7,1.9l1.6,0.6c1.3,0.5,2.2,1.2,2.8,1.9c0.6,0.7,0.9,1.7,0.9,2.8c0,1.5-0.5,2.7-1.5,3.6
		c-1,1-2.2,1.4-3.6,1.4s-2.5-0.4-3.4-1.2c-0.9-0.8-1.4-2-1.7-3.4l2.4-0.5c0.1,0.9,0.3,1.6,0.6,1.9c0.5,0.7,1.2,1,2.2,1
		c0.7,0,1.4-0.2,1.9-0.7s0.7-1.1,0.7-1.9c0-0.3,0-0.6-0.1-0.8c-0.1-0.3-0.2-0.5-0.4-0.7c-0.2-0.2-0.4-0.4-0.7-0.6
		c-0.3-0.2-0.6-0.4-1-0.5l-1.5-0.6c-2.2-0.9-3.3-2.3-3.3-4c0-1.2,0.5-2.2,1.4-3s2-1.2,3.4-1.2C391.9,62,393.4,62.9,394.4,64.7z"/>
</g>
</svg>
